<mxfile host="app.diagrams.net" modified="2023-05-24T16:55:54.473Z" agent="Mozilla/5.0 (Windows NT 10.0; Win64; x64) AppleWebKit/537.36 (KHTML, like Gecko) Chrome/113.0.0.0 Safari/537.36 Edg/113.0.1774.50" etag="8FXfLVqXpmrEUfrWl8Wj" version="21.3.3" type="github">
  <diagram name="Page-1" id="1622d65d-c77d-c4b6-e0e7-3c11208c8684">
    <mxGraphModel dx="1105" dy="1073" grid="1" gridSize="10" guides="1" tooltips="1" connect="1" arrows="1" fold="1" page="1" pageScale="1.5" pageWidth="1169" pageHeight="826" background="none" math="0" shadow="0">
      <root>
        <mxCell id="0" style=";html=1;" />
        <mxCell id="1" style=";html=1;" parent="0" />
        <mxCell id="869962fe87da545-3" value="" style="whiteSpace=wrap;html=1;rounded=0;shadow=0;dashed=0;strokeWidth=1;fontFamily=Tahoma;fontSize=10;fontColor=#FFFFFF;strokeColor=none;fillColor=#7FB61A;gradientColor=#1B622A;gradientDirection=west;" parent="1" vertex="1">
          <mxGeometry x="1380" y="360" width="240" height="180" as="geometry" />
        </mxCell>
        <mxCell id="869962fe87da545-4" value="" style="verticalLabelPosition=bottom;verticalAlign=top;html=1;strokeWidth=1;shape=mxgraph.basic.orthogonal_triangle;rounded=0;shadow=0;dashed=0;fontFamily=Tahoma;fontSize=10;fontColor=#FFFFFF;flipV=1;fillColor=#000000;strokeColor=none;opacity=50;" parent="1" vertex="1">
          <mxGeometry x="1360" y="350" width="140" height="40" as="geometry" />
        </mxCell>
        <mxCell id="869962fe87da545-6" value="" style="whiteSpace=wrap;html=1;rounded=0;shadow=0;dashed=0;strokeWidth=1;fontFamily=Tahoma;fontSize=10;fontColor=#FFFFFF;strokeColor=none;fillColor=#5398DB;gradientColor=#1247B9;gradientDirection=west;" parent="1" vertex="1">
          <mxGeometry x="1380" y="720" width="240" height="180" as="geometry" />
        </mxCell>
        <mxCell id="869962fe87da545-7" value="" style="verticalLabelPosition=bottom;verticalAlign=top;html=1;strokeWidth=1;shape=mxgraph.basic.orthogonal_triangle;rounded=0;shadow=0;dashed=0;fontFamily=Tahoma;fontSize=10;fontColor=#FFFFFF;flipV=1;fillColor=#000000;strokeColor=none;opacity=50;" parent="1" vertex="1">
          <mxGeometry x="1370" y="610" width="140" height="40" as="geometry" />
        </mxCell>
        <mxCell id="869962fe87da545-9" value="" style="whiteSpace=wrap;html=1;rounded=0;shadow=0;dashed=0;strokeWidth=1;fontFamily=Tahoma;fontSize=10;fontColor=#FFFFFF;strokeColor=none;fillColor=#8D029D;gradientColor=#65009E;gradientDirection=west;" parent="1" vertex="1">
          <mxGeometry x="1380" y="1090" width="240" height="180" as="geometry" />
        </mxCell>
        <mxCell id="869962fe87da545-13" value="" style="verticalLabelPosition=bottom;verticalAlign=top;html=1;strokeWidth=1;shape=mxgraph.basic.orthogonal_triangle;rounded=0;shadow=0;dashed=0;fontFamily=Tahoma;fontSize=10;fontColor=#FFFFFF;flipV=1;fillColor=#000000;strokeColor=none;opacity=50;" parent="1" vertex="1">
          <mxGeometry x="1370" y="1110" width="140" height="40" as="geometry" />
        </mxCell>
        <mxCell id="869962fe87da545-2" value="" style="html=1;shadow=0;dashed=0;align=center;verticalAlign=middle;shape=mxgraph.arrows2.arrow;dy=0;dx=0;notch=30;rounded=0;strokeColor=none;strokeWidth=1;fillColor=#7FB61A;fontFamily=Tahoma;fontSize=10;fontColor=#FFFFFF;gradientColor=#1B622A;gradientDirection=east;" parent="1" vertex="1">
          <mxGeometry x="280" y="220" width="1210" height="260" as="geometry" />
        </mxCell>
        <mxCell id="869962fe87da545-8" value="" style="html=1;shadow=0;dashed=0;align=center;verticalAlign=middle;shape=mxgraph.arrows2.arrow;dy=0;dx=0;notch=30;rounded=0;strokeColor=none;strokeWidth=1;fillColor=#5398DB;fontFamily=Tahoma;fontSize=10;fontColor=#FFFFFF;gradientColor=#1247B9;gradientDirection=east;" parent="1" vertex="1">
          <mxGeometry x="272" y="610" width="1210" height="240" as="geometry" />
        </mxCell>
        <mxCell id="869962fe87da545-11" value="" style="html=1;shadow=0;dashed=0;align=center;verticalAlign=middle;shape=mxgraph.arrows2.arrow;dy=0;dx=0;notch=30;rounded=0;strokeColor=none;strokeWidth=1;fillColor=#8D029D;fontFamily=Tahoma;fontSize=10;fontColor=#FFFFFF;gradientColor=#65009E;gradientDirection=east;" parent="1" vertex="1">
          <mxGeometry x="270" y="980" width="1210" height="230" as="geometry" />
        </mxCell>
        <mxCell id="869962fe87da545-18" value="（2）非功能性需求分析" style="text;html=1;strokeColor=none;fillColor=none;align=center;verticalAlign=middle;whiteSpace=wrap;rounded=0;shadow=0;dashed=0;fontFamily=Verdana;fontSize=70;horizontal=0;" parent="1" vertex="1">
          <mxGeometry x="110" y="170" width="160" height="1190" as="geometry" />
        </mxCell>
        <mxCell id="869962fe87da545-19" value="&lt;font class=&quot;custom-cursor-default-hover&quot; style=&quot;font-size: 60px;&quot;&gt;可靠性&lt;/font&gt;" style="text;html=1;strokeColor=none;fillColor=none;align=right;verticalAlign=middle;whiteSpace=wrap;rounded=0;shadow=0;dashed=0;fontFamily=Helvetica;fontSize=150;fontColor=#FFFFFF;" parent="1" vertex="1">
          <mxGeometry x="320" y="240" width="200" height="180" as="geometry" />
        </mxCell>
        <mxCell id="869962fe87da545-20" value="&lt;span style=&quot;font-size: 60px;&quot;&gt;安全性&lt;/span&gt;" style="text;html=1;strokeColor=none;fillColor=none;align=right;verticalAlign=middle;whiteSpace=wrap;rounded=0;shadow=0;dashed=0;fontFamily=Helvetica;fontSize=150;fontColor=#FFFFFF;" parent="1" vertex="1">
          <mxGeometry x="320" y="620" width="200" height="180" as="geometry" />
        </mxCell>
        <mxCell id="869962fe87da545-21" value="&lt;font class=&quot;custom-cursor-default-hover&quot; style=&quot;font-size: 60px;&quot;&gt;运行环境&lt;/font&gt;" style="text;html=1;strokeColor=none;fillColor=none;align=right;verticalAlign=middle;whiteSpace=wrap;rounded=0;shadow=0;dashed=0;fontFamily=Helvetica;fontSize=150;fontColor=#FFFFFF;" parent="1" vertex="1">
          <mxGeometry x="290" y="970" width="260" height="180" as="geometry" />
        </mxCell>
        <mxCell id="869962fe87da545-24" value="" style="line;strokeWidth=4;direction=south;html=1;rounded=0;shadow=0;dashed=0;fillColor=none;gradientColor=#AD0002;fontFamily=Helvetica;fontSize=150;fontColor=#FFFFFF;align=right;strokeColor=#FFFFFF;" parent="1" vertex="1">
          <mxGeometry x="550" y="230" width="10" height="230" as="geometry" />
        </mxCell>
        <mxCell id="869962fe87da545-25" value="" style="line;strokeWidth=4;direction=south;html=1;rounded=0;shadow=0;dashed=0;fillColor=none;gradientColor=#AD0002;fontFamily=Helvetica;fontSize=150;fontColor=#FFFFFF;align=right;strokeColor=#FFFFFF;" parent="1" vertex="1">
          <mxGeometry x="550" y="620" width="10" height="220" as="geometry" />
        </mxCell>
        <mxCell id="869962fe87da545-26" value="" style="line;strokeWidth=4;direction=south;html=1;rounded=0;shadow=0;dashed=0;fillColor=none;gradientColor=#AD0002;fontFamily=Helvetica;fontSize=150;fontColor=#FFFFFF;align=right;strokeColor=#FFFFFF;" parent="1" vertex="1">
          <mxGeometry x="550" y="990" width="10" height="210" as="geometry" />
        </mxCell>
        <mxCell id="869962fe87da545-29" value="&lt;h1 class=&quot;custom-cursor-default-hover&quot;&gt;&lt;p style=&quot;text-align: justify;&quot; class=&quot;MsoNormal&quot;&gt;为了让用户使用安心，需要可靠性分析，确保音乐播放网站稳定可靠，不会突然的出现问题。确保能在不利的条件下完成任务，保证高校内师生用户的使用。如果系统是不可靠的，不稳定的，那么一旦发生故障，则不想要等待系统修复完成后，才能继续使用，这会给高校内师生的日常收听音乐造成影响。&lt;/p&gt;&lt;/h1&gt;" style="text;html=1;strokeColor=none;fillColor=none;spacing=5;spacingTop=-20;whiteSpace=wrap;overflow=hidden;rounded=0;shadow=0;dashed=0;fontFamily=Helvetica;fontSize=12;fontColor=#FFFFFF;align=left;" parent="1" vertex="1">
          <mxGeometry x="590" y="255" width="670" height="180" as="geometry" />
        </mxCell>
        <mxCell id="869962fe87da545-30" value="&lt;h1 class=&quot;custom-cursor-default-hover&quot;&gt;&lt;p style=&quot;text-align: justify;&quot; class=&quot;MsoNormal&quot;&gt;&lt;font face=&quot;宋体&quot;&gt;为保障用户的信息安全，系统整体要求有安全的非功能性需求分析，确保开发的系统是安全的。在该系统中，用户注册的时候，保存了高校内师生以及校内音乐网站维护人员的个人信息，如果系统的安全性不过关，则很容易被校外的不法分子盗取个人信息，而用于犯法，这会给校内师生和网站维护人员带来巨大的损失。&lt;/font&gt;&lt;/p&gt;&lt;/h1&gt;" style="text;html=1;strokeColor=none;fillColor=none;spacing=5;spacingTop=-20;whiteSpace=wrap;overflow=hidden;rounded=0;shadow=0;dashed=0;fontFamily=Helvetica;fontSize=12;fontColor=#FFFFFF;align=left;" parent="1" vertex="1">
          <mxGeometry x="600" y="630" width="690" height="190" as="geometry" />
        </mxCell>
        <mxCell id="869962fe87da545-31" value="&lt;h1 style=&quot;text-align: justify;&quot; class=&quot;custom-cursor-default-hover&quot;&gt;&lt;font style=&quot;font-size: 24px;&quot;&gt;为了使用户使用起来流畅顺手，要求严格的优质运行环境是有必要的。&lt;font style=&quot;text-indent: 24pt; background-color: initial;&quot; face=&quot;宋体&quot;&gt;硬件推荐&lt;/font&gt;64&lt;font style=&quot;text-indent: 24pt; background-color: initial;&quot; face=&quot;宋体&quot;&gt;位，&lt;/font&gt;&lt;font style=&quot;font-family: &amp;quot;Times New Roman&amp;quot;; text-indent: 24pt; background-color: initial;&quot; face=&quot;Times New Roman&quot;&gt;windows10&lt;/font&gt;&lt;font style=&quot;text-indent: 24pt; background-color: initial;&quot; face=&quot;宋体&quot;&gt;以上的&lt;/font&gt;&lt;font style=&quot;font-family: &amp;quot;Times New Roman&amp;quot;; text-indent: 24pt; background-color: initial;&quot; face=&quot;Times New Roman&quot;&gt;PC&lt;/font&gt;&lt;font style=&quot;text-indent: 24pt; background-color: initial;&quot; face=&quot;宋体&quot;&gt;机，运行内存最低要求位&lt;/font&gt;&lt;font style=&quot;font-family: &amp;quot;Times New Roman&amp;quot;; text-indent: 24pt; background-color: initial;&quot; face=&quot;Times New Roman&quot;&gt;8G&lt;/font&gt;&lt;font style=&quot;text-indent: 24pt; background-color: initial;&quot; face=&quot;宋体&quot;&gt;，内存空间要足够大，至少要求&lt;/font&gt;&lt;font style=&quot;font-family: &amp;quot;Times New Roman&amp;quot;; text-indent: 24pt; background-color: initial;&quot; face=&quot;Times New Roman&quot;&gt;10GB&lt;/font&gt;&lt;font style=&quot;text-indent: 24pt; background-color: initial;&quot; face=&quot;宋体&quot;&gt;，推荐使用&lt;/font&gt;&lt;font style=&quot;font-family: &amp;quot;Times New Roman&amp;quot;; text-indent: 24pt; background-color: initial;&quot; face=&quot;Times New Roman&quot;&gt;SSD&lt;/font&gt;&lt;font style=&quot;text-indent: 24pt; background-color: initial;&quot; face=&quot;宋体&quot;&gt;硬盘；然后软件方面，开发最好用&lt;/font&gt;&lt;font style=&quot;font-family: &amp;quot;Times New Roman&amp;quot;; text-indent: 24pt; background-color: initial;&quot; face=&quot;Times New Roman&quot;&gt;IntelliJ IDEA&lt;/font&gt;&lt;font style=&quot;text-indent: 24pt; background-color: initial;&quot; face=&quot;宋体&quot;&gt;，&lt;/font&gt;&lt;font style=&quot;font-family: &amp;quot;Times New Roman&amp;quot;; text-indent: 24pt; background-color: initial;&quot; face=&quot;Times New Roman&quot;&gt;Navicat for MySQL&lt;/font&gt;&lt;font style=&quot;text-indent: 24pt; background-color: initial;&quot; face=&quot;宋体&quot;&gt;，&lt;/font&gt;&lt;font style=&quot;font-family: &amp;quot;Times New Roman&amp;quot;; text-indent: 24pt; background-color: initial;&quot; face=&quot;Times New Roman&quot;&gt;java&lt;/font&gt;&lt;font style=&quot;text-indent: 24pt; background-color: initial;&quot; face=&quot;宋体&quot;&gt;的运行环境最好是&lt;/font&gt;&lt;font style=&quot;font-family: &amp;quot;Times New Roman&amp;quot;; text-indent: 24pt; background-color: initial;&quot; face=&quot;Times New Roman&quot;&gt;JDK11&lt;/font&gt;&lt;font style=&quot;text-indent: 24pt; background-color: initial;&quot; face=&quot;宋体&quot;&gt;版本以以上版本。&lt;/font&gt;&lt;/font&gt;&lt;/h1&gt;&lt;p style=&quot;margin-left:0.0000pt;text-indent:24.0000pt;mso-char-indent-count:2.0000;&lt;br/&gt;text-autospace:ideograph-numeric;mso-pagination:widow-orphan;line-height:20.0000pt;&lt;br/&gt;mso-line-height-rule:exactly;&quot; class=&quot;MsoNormal&quot;&gt;&lt;span style=&quot;mso-spacerun:&#39;yes&#39;;font-family:宋体;font-size:12.0000pt;&lt;br/&gt;mso-font-kerning:1.0000pt;&quot;&gt;&lt;/span&gt;&lt;/p&gt;" style="text;html=1;strokeColor=none;fillColor=none;spacing=5;spacingTop=-20;whiteSpace=wrap;overflow=hidden;rounded=0;shadow=0;dashed=0;fontFamily=Helvetica;fontSize=12;fontColor=#FFFFFF;align=left;" parent="1" vertex="1">
          <mxGeometry x="590" y="1010" width="670" height="160" as="geometry" />
        </mxCell>
        <mxCell id="869962fe87da545-34" value="" style="shadow=0;dashed=0;html=1;strokeColor=none;fillColor=#FFFFFF;labelPosition=center;verticalLabelPosition=bottom;verticalAlign=top;shape=mxgraph.office.users.users;rounded=0;fontFamily=Helvetica;fontSize=12;fontColor=#FFFFFF;align=left;" parent="1" vertex="1">
          <mxGeometry x="1346.9999999999995" y="290" width="92" height="100" as="geometry" />
        </mxCell>
        <mxCell id="869962fe87da545-35" value="" style="shadow=0;dashed=0;html=1;strokeColor=none;fillColor=#FFFFFF;labelPosition=center;verticalLabelPosition=bottom;verticalAlign=top;shape=mxgraph.office.security.token;rounded=0;fontFamily=Helvetica;fontSize=12;fontColor=#FFFFFF;align=left;" parent="1" vertex="1">
          <mxGeometry x="1354.9999999999993" y="660" width="84" height="106" as="geometry" />
        </mxCell>
        <mxCell id="869962fe87da545-36" value="" style="shadow=0;dashed=0;html=1;strokeColor=none;fillColor=#FFFFFF;labelPosition=center;verticalLabelPosition=bottom;verticalAlign=top;shape=mxgraph.office.concepts.best_practices;rounded=0;fontFamily=Helvetica;fontSize=12;fontColor=#FFFFFF;align=left;" parent="1" vertex="1">
          <mxGeometry x="1342" y="1040" width="97" height="97" as="geometry" />
        </mxCell>
      </root>
    </mxGraphModel>
  </diagram>
</mxfile>
